<svg width="1024" height="1024" xmlns="http://www.w3.org/2000/svg" xml:space="preserve" version="1.1">

 <g>
  <title>Layer 1</title>
  <path id="svg_2" fill="#1c9bcd" d="m175.9,218.7c-115.3,32.5 -106.4,147.8 -106.4,147.8s1.5,246.8 -0.2,371.7c12.4,124.8 108.8,144.8 108.8,144.8s38.4,0.7 66.5,0.7c3,8.1 5.2,47.3 48.8,47.3c43.6,0 48.8,-47.3 48.8,-47.3s319.2,-1.5 345.8,-1.5c1.5,13.3 8.1,49.5 51.7,48.8c43.6,-0.7 46.6,-51.7 46.6,-51.7s14.8,-1.5 59.1,0c103.4,-19.2 109.4,-140.4 109.4,-140.4s-1.5,-248.3 0,-372.4c-3,-124.1 -110.8,-147.8 -110.8,-147.8s-85,0.1 -194.6,-0.5l80.2,-77.8s12.8,-15.8 -8.9,-33.5c-21.7,-17.7 -22.8,-9.9 -30.1,-4.9c-6.6,4.5 -103.1,99.5 -120.2,116.3l-113.8,-0.2s-115.9,-114.1 -123.2,-119.1c-7.3,-4.9 -8.5,-12.8 -30.1,4.9c-21.7,17.7 -8.9,33.5 -8.9,33.5l83.2,80.6l-201.7,0.7zm689.8,542.8c0,19.6 -15.5,35.5 -34.6,35.5l-629.3,0c-19.1,0 -34.6,-15.9 -34.6,-35.5l0,-416.7c0,-19.6 15.5,-35.5 34.6,-35.5l629.2,0c19.1,0 34.6,15.9 34.6,35.5l0,416.7l0.1,0z" class="st1"/>
  <path id="svg_3" fill="#1c9bcd" d="m512,340c-116,0 -210,94 -210,210s94,210 210,210s210,-94 210,-210s-94,-210 -210,-210zm0,375c-91.1,0 -165,-73.9 -165,-165s73.9,-165 165,-165s165,73.9 165,165s-73.9,165 -165,165z" class="st1"/>
  <path id="svg_4" fill="#1c9bcd" d="m512,490c-33.1,0 -60,26.9 -60,60c0,12.4 -10.1,22.5 -22.5,22.5s-22.5,-10.1 -22.5,-22.5c0,-58 47,-105 105,-105c12.4,0 22.5,10.1 22.5,22.5s-10.1,22.5 -22.5,22.5z" class="st1"/>
 </g>
</svg>